# xmcd
#
# Track frame offsets:
#	150
#	19045
#	30972
#	44770
#	57900
#	77395
#	96442
#	111217
#	128995
#	150297
#	162745
#	172159
#	190159
#
# Disc length: 2728 seconds
#
# Revision: 1
# Processed by: cddbd v1.5.2PL0 Copyright (c) Steve Scherf et al.
# Submitted via: audiograbber 1.83.01
#
DISCID=a50aa60d
DTITLE=Jeff Turner/Sandra Studer/Egon Egemann - Portraits
DYEAR=1995
DGENRE=Country
TTITLE0=The Three Bells
TTITLE1=A Wonderful Time Up There
TTITLE2=Grenzenlos
TTITLE3=When I'm With You
TTITLE4=Flying Away
TTITLE5=Where a Child Is Born
TTITLE6=Lied meiner Träume
TTITLE7=Say It's Only Me
TTITLE8=Teardrops
TTITLE9=Once You Love
TTITLE10=Kleine Nachtmusik
TTITLE11=Welcome to My World
TTITLE12=Sunshine Girl
EXTD=
EXTT0=
EXTT1=
EXTT2=
EXTT3=
EXTT4=
EXTT5=
EXTT6=
EXTT7=
EXTT8=
EXTT9=
EXTT10=
EXTT11=
EXTT12=
PLAYORDER=
